<svg width="198" height="45" viewBox="0 0 198 45" fill="none" xmlns="http://www.w3.org/2000/svg">
<path d="M74.2499 30.5987C74.0899 30.6987 73.8499 30.8587 73.5399 31.0887C73.2199 31.3187 72.8099 31.5387 72.2999 31.7587C71.7899 31.9787 71.1899 32.1687 70.4999 32.3387C69.7999 32.5087 69.0099 32.5887 68.1199 32.5887C66.9299 32.5887 65.8599 32.4087 64.9099 32.0387C63.9599 31.6687 63.1499 31.1587 62.4799 30.5087C61.8099 29.8587 61.3099 29.0687 60.9599 28.1387C60.6099 27.2187 60.4399 26.1987 60.4399 25.0887C60.4399 24.1187 60.5999 23.1787 60.9299 22.2787C61.2599 21.3787 61.7299 20.5887 62.3399 19.9087C62.9599 19.2387 63.7099 18.6887 64.5999 18.2887C65.4899 17.8787 66.5099 17.6787 67.6399 17.6787C68.7699 17.6787 69.7599 17.8787 70.6199 18.2787C71.4699 18.6787 72.1899 19.2287 72.7799 19.9287C73.3599 20.6287 73.8099 21.4787 74.0999 22.4587C74.3999 23.4387 74.5499 24.5187 74.5499 25.6887V26.3987H64.6099C64.6299 27.1487 64.9599 27.8087 65.6099 28.3787C66.2499 28.9487 67.1399 29.2287 68.2699 29.2287C69.3999 29.2287 70.2799 29.0687 70.9799 28.7387C71.6699 28.4087 72.1799 28.1287 72.4999 27.8887L74.2599 30.5987H74.2499ZM70.4999 23.6587C70.4999 23.3587 70.4399 23.0587 70.3199 22.7487C70.1999 22.4387 70.0199 22.1587 69.7799 21.8987C69.5399 21.6387 69.2399 21.4287 68.8899 21.2587C68.5299 21.0887 68.1099 21.0087 67.6099 21.0087C67.1099 21.0087 66.6799 21.0987 66.2999 21.2587C65.9199 21.4287 65.6099 21.6387 65.3599 21.8987C65.1099 22.1587 64.9199 22.4387 64.7899 22.7487C64.6599 23.0587 64.5999 23.3587 64.5999 23.6587H70.4899H70.4999Z" fill="white"/>
<path d="M78.03 21.5187H75.83V18.1587H78.03V13.9287H82.32V18.1587H85.92V21.5187H82.32V27.0287C82.32 27.6987 82.45 28.2287 82.72 28.5887C82.99 28.9587 83.41 29.1387 83.99 29.1387C84.43 29.1387 84.7999 29.0687 85.1199 28.9187C85.4399 28.7687 85.7399 28.5987 86.0099 28.3987L87.74 31.0187C86.39 32.0887 84.92 32.6287 83.33 32.6287C82.34 32.6287 81.5 32.4887 80.83 32.1987C80.16 31.9087 79.61 31.5187 79.19 31.0087C78.77 30.4987 78.48 29.8887 78.3 29.1787C78.12 28.4687 78.03 27.6687 78.03 26.7987V21.5287V21.5187Z" fill="white"/>
<path d="M90.03 21.5187H87.83V18.1587H90.03V13.9287H94.32V18.1587H97.92V21.5187H94.32V27.0287C94.32 27.6987 94.45 28.2287 94.72 28.5887C94.99 28.9587 95.4099 29.1387 95.9799 29.1387C96.4199 29.1387 96.79 29.0687 97.11 28.9187C97.43 28.7687 97.73 28.5987 98 28.3987L99.7299 31.0187C98.3799 32.0887 96.91 32.6287 95.32 32.6287C94.33 32.6287 93.49 32.4887 92.82 32.1987C92.15 31.9087 91.5999 31.5187 91.1799 31.0087C90.7599 30.4987 90.4699 29.8887 90.2899 29.1787C90.1099 28.4687 90.02 27.6687 90.02 26.7987V21.5287L90.03 21.5187Z" fill="white"/>
<path d="M114.02 30.5987C113.86 30.6987 113.62 30.8587 113.31 31.0887C112.99 31.3187 112.58 31.5387 112.07 31.7587C111.56 31.9787 110.96 32.1687 110.27 32.3387C109.58 32.5087 108.78 32.5887 107.89 32.5887C106.7 32.5887 105.63 32.4087 104.68 32.0387C103.73 31.6687 102.92 31.1587 102.25 30.5087C101.59 29.8587 101.08 29.0687 100.73 28.1387C100.38 27.2187 100.21 26.1987 100.21 25.0887C100.21 24.1187 100.37 23.1787 100.7 22.2787C101.03 21.3787 101.5 20.5887 102.11 19.9087C102.73 19.2387 103.48 18.6887 104.37 18.2887C105.26 17.8787 106.28 17.6787 107.41 17.6787C108.54 17.6787 109.53 17.8787 110.39 18.2787C111.24 18.6787 111.96 19.2287 112.55 19.9287C113.14 20.6287 113.58 21.4787 113.87 22.4587C114.17 23.4387 114.32 24.5187 114.32 25.6887V26.3987H104.38C104.4 27.1487 104.73 27.8087 105.38 28.3787C106.02 28.9487 106.91 29.2287 108.04 29.2287C109.17 29.2287 110.05 29.0687 110.75 28.7387C111.44 28.4087 111.95 28.1287 112.27 27.8887L114.03 30.5987H114.02ZM110.27 23.6587C110.27 23.3587 110.21 23.0587 110.09 22.7487C109.97 22.4387 109.79 22.1587 109.55 21.8987C109.31 21.6387 109.01 21.4287 108.66 21.2587C108.3 21.0887 107.88 21.0087 107.38 21.0087C106.88 21.0087 106.45 21.0987 106.07 21.2587C105.69 21.4287 105.38 21.6387 105.13 21.8987C104.88 22.1587 104.69 22.4387 104.57 22.7487C104.44 23.0587 104.38 23.3587 104.38 23.6587H110.27Z" fill="white"/>
<path d="M116.76 18.1489H120.87L121.02 19.9089C121.38 19.4289 121.87 18.9789 122.49 18.5389C123.11 18.0989 123.92 17.8789 124.92 17.8789C125.3 17.8789 125.62 17.8989 125.89 17.9389C126.16 17.9789 126.42 18.0489 126.68 18.1489L126 21.9289C125.56 21.7889 125.05 21.7189 124.45 21.7189C123.44 21.7189 122.62 22.0189 121.99 22.6289C121.37 23.2389 121.05 24.0889 121.05 25.1989V32.1089H116.76V18.1489Z" fill="white"/>
<path d="M129.44 12.2588H136.02C136.99 12.2588 137.83 12.3888 138.52 12.6588C139.21 12.9288 139.78 13.2788 140.22 13.7288C140.66 14.1788 140.97 14.6888 141.17 15.2788C141.37 15.8688 141.47 16.4888 141.47 17.1388C141.47 17.6988 141.38 18.2188 141.2 18.7188C141.02 19.2188 140.78 19.6688 140.47 20.0688C140.16 20.4788 139.79 20.8188 139.35 21.0988C138.91 21.3788 138.43 21.5688 137.89 21.6688C138.41 21.7488 138.94 21.8888 139.5 22.0888C140.05 22.2888 140.56 22.5788 141.02 22.9688C141.48 23.3588 141.85 23.8588 142.15 24.4688C142.45 25.0888 142.6 25.8488 142.6 26.7588C142.6 27.8288 142.4 28.7088 142 29.3888C141.6 30.0688 141.06 30.6188 140.38 31.0288C139.7 31.4388 138.9 31.7188 138 31.8788C137.1 32.0388 136.14 32.1188 135.13 32.1188H129.45V12.2688L129.44 12.2588ZM135.21 21.0988C135.75 21.0988 136.3 21.0288 136.86 20.8888C137.43 20.7488 137.94 20.5188 138.39 20.1988C138.85 19.8788 139.22 19.4788 139.52 18.9888C139.82 18.4988 139.97 17.9088 139.97 17.2188C139.97 16.4288 139.83 15.7888 139.54 15.3188C139.25 14.8388 138.88 14.4788 138.42 14.2188C137.96 13.9588 137.45 13.7888 136.89 13.7088C136.32 13.6288 135.76 13.5888 135.21 13.5888H130.86V21.0888H135.21V21.0988ZM134.76 30.7688C135.51 30.7688 136.27 30.7388 137.02 30.6688C137.77 30.5988 138.45 30.4288 139.06 30.1588C139.66 29.8888 140.16 29.4888 140.53 28.9488C140.91 28.4088 141.1 27.6788 141.1 26.7488C141.1 25.8188 140.92 25.1288 140.55 24.5588C140.18 23.9888 139.72 23.5588 139.15 23.2488C138.58 22.9388 137.95 22.7288 137.26 22.6088C136.56 22.4888 135.89 22.4288 135.23 22.4288H130.85V30.7588H134.75L134.76 30.7688Z" fill="white"/>
<path d="M152.59 32.4688C151.62 32.4688 150.7 32.2788 149.85 31.8988C149 31.5188 148.25 31.0088 147.6 30.3488C146.95 29.6988 146.45 28.9288 146.08 28.0588C145.71 27.1888 145.53 26.2488 145.53 25.2588C145.53 24.2688 145.71 23.3388 146.08 22.4588C146.45 21.5888 146.95 20.8188 147.6 20.1688C148.24 19.5188 148.99 18.9988 149.85 18.6188C150.7 18.2388 151.62 18.0488 152.59 18.0488C153.56 18.0488 154.48 18.2388 155.33 18.6188C156.18 18.9988 156.93 19.5088 157.58 20.1688C158.22 20.8288 158.73 21.5888 159.1 22.4588C159.47 23.3288 159.65 24.2688 159.65 25.2588C159.65 26.2488 159.47 27.1788 159.1 28.0588C158.73 28.9288 158.23 29.6988 157.58 30.3488C156.93 30.9988 156.19 31.5188 155.33 31.8988C154.48 32.2788 153.56 32.4688 152.59 32.4688ZM152.59 31.2488C153.38 31.2488 154.13 31.0888 154.82 30.7688C155.51 30.4488 156.11 30.0288 156.62 29.4888C157.13 28.9488 157.52 28.3188 157.81 27.5988C158.1 26.8788 158.24 26.0988 158.24 25.2588C158.24 24.4188 158.09 23.7088 157.79 22.9788C157.49 22.2588 157.09 21.6188 156.58 21.0588C156.07 20.4988 155.47 20.0688 154.78 19.7488C154.09 19.4288 153.35 19.2688 152.58 19.2688C151.77 19.2688 151.02 19.4288 150.33 19.7488C149.64 20.0688 149.05 20.4888 148.54 21.0288C148.03 21.5688 147.64 22.1988 147.35 22.9188C147.06 23.6388 146.92 24.4188 146.92 25.2588C146.92 26.0988 147.07 26.8388 147.37 27.5488C147.67 28.2588 148.07 28.8988 148.58 29.4488C149.09 30.0088 149.69 30.4388 150.38 30.7588C151.07 31.0788 151.81 31.2388 152.58 31.2388L152.59 31.2488Z" fill="white"/>
<path d="M162.86 13.5986H164.74V15.5286H162.86V13.5986ZM163.13 18.4186H164.47V32.1086H163.13V18.4186Z" fill="white"/>
<path d="M168.64 12.2588H169.98V32.1088H168.64V12.2588Z" fill="white"/>
<path d="M185.96 30.0586C185.36 30.8086 184.56 31.3986 183.53 31.8286C182.51 32.2586 181.46 32.4686 180.39 32.4686C179.38 32.4686 178.44 32.2986 177.58 31.9486C176.72 31.5986 175.98 31.1086 175.36 30.4786C174.74 29.8486 174.26 29.0886 173.92 28.1986C173.58 27.3086 173.4 26.3386 173.4 25.2686C173.4 24.2786 173.56 23.3486 173.89 22.4686C174.22 21.5986 174.67 20.8286 175.24 20.1786C175.82 19.5286 176.51 19.0086 177.32 18.6286C178.13 18.2486 179.03 18.0586 180 18.0586C180.97 18.0586 181.8 18.2186 182.6 18.5486C183.4 18.8786 184.1 19.3586 184.68 19.9886C185.27 20.6286 185.72 21.4086 186.05 22.3586C186.38 23.2986 186.54 24.3886 186.54 25.6186H174.87C174.89 26.3886 175.04 27.1186 175.32 27.8086C175.6 28.4886 175.97 29.0886 176.45 29.5986C176.93 30.1086 177.5 30.4986 178.16 30.7886C178.83 31.0786 179.56 31.2186 180.38 31.2186C180.8 31.2186 181.23 31.1786 181.67 31.0886C182.12 30.9986 182.55 30.8686 182.97 30.6886C183.39 30.5086 183.77 30.2986 184.11 30.0686C184.46 29.8286 184.75 29.5586 184.99 29.2686L185.94 30.0686L185.96 30.0586ZM185.1 24.4586C184.92 22.7686 184.39 21.4886 183.49 20.6186C182.6 19.7486 181.44 19.3086 180.01 19.3086C179.28 19.3086 178.61 19.4386 178 19.7086C177.39 19.9786 176.87 20.3486 176.44 20.8086C176 21.2786 175.65 21.8186 175.38 22.4486C175.11 23.0786 174.96 23.7386 174.92 24.4586H185.1Z" fill="white"/>
<path d="M190.04 21.3088V19.6288C190.04 19.4188 190.04 19.2188 190.03 19.0288C190.02 18.8388 190 18.6388 189.99 18.4188H191.24C191.26 18.6388 191.28 18.8488 191.28 19.0388C191.28 19.2388 191.3 19.4488 191.31 19.6788C191.31 19.9088 191.33 20.1588 191.33 20.4388V21.4188C191.49 21.1188 191.7 20.7888 191.97 20.4188C192.24 20.0488 192.58 19.7088 193 19.3888C193.42 19.0688 193.9 18.8088 194.46 18.5888C195.01 18.3688 195.66 18.2588 196.4 18.2588C196.84 18.2588 197.21 18.3288 197.53 18.4688L197.14 19.7488C197 19.6888 196.84 19.6488 196.65 19.6288C196.46 19.6088 196.29 19.5988 196.13 19.5988C195.42 19.5988 194.77 19.7588 194.2 20.0788C193.62 20.3988 193.13 20.8088 192.71 21.3288C192.29 21.8488 191.97 22.4388 191.74 23.0988C191.51 23.7688 191.4 24.4288 191.4 25.1088V32.1088H190.06V21.2988L190.04 21.3088Z" fill="white"/>
<path d="M164.56 42.2687V40.3887H166.49V42.2687H164.56Z" fill="white"/>
<path d="M171.69 40.4193L172.68 41.5293C172.45 41.7793 172.15 41.9993 171.77 42.1793C171.39 42.3593 170.95 42.4493 170.44 42.4493C169.85 42.4493 169.33 42.3193 168.88 42.0693C168.43 41.8093 168.08 41.4593 167.83 41.0193C167.58 40.5693 167.45 40.0593 167.45 39.4893C167.45 38.9193 167.58 38.4393 167.84 37.9893C168.1 37.5393 168.46 37.1893 168.9 36.9293C169.35 36.6693 169.86 36.5293 170.44 36.5293C170.94 36.5293 171.38 36.6093 171.76 36.7793C172.14 36.9493 172.44 37.1693 172.69 37.4393L171.66 38.5493C171.53 38.4093 171.38 38.2793 171.2 38.1693C171.02 38.0593 170.78 37.9993 170.48 37.9993C170.21 37.9993 169.98 38.0693 169.78 38.2093C169.58 38.3493 169.43 38.5293 169.32 38.7493C169.21 38.9693 169.16 39.2193 169.16 39.4793C169.16 39.7193 169.21 39.9593 169.32 40.1793C169.43 40.4093 169.58 40.5893 169.78 40.7393C169.98 40.8893 170.21 40.9593 170.48 40.9593C170.77 40.9593 171.02 40.8993 171.21 40.7793C171.41 40.6593 171.56 40.5393 171.68 40.4093L171.69 40.4193Z" fill="white"/>
<path d="M173.04 39.4893C173.04 38.9493 173.17 38.4493 173.42 37.9993C173.67 37.5493 174.02 37.1893 174.47 36.9293C174.92 36.6693 175.43 36.5293 176.03 36.5293C176.63 36.5293 177.14 36.6593 177.59 36.9293C178.04 37.1893 178.38 37.5493 178.63 37.9993C178.88 38.4493 179 38.9493 179 39.4893C179 40.0293 178.88 40.5293 178.63 40.9793C178.38 41.4293 178.03 41.7893 177.59 42.0593C177.14 42.3293 176.63 42.4593 176.03 42.4593C175.43 42.4593 174.92 42.3293 174.47 42.0593C174.02 41.7893 173.68 41.4293 173.42 40.9793C173.17 40.5293 173.04 40.0293 173.04 39.4893ZM176.02 40.9793C176.31 40.9793 176.55 40.9093 176.75 40.7693C176.95 40.6293 177.09 40.4393 177.19 40.2093C177.29 39.9793 177.34 39.7393 177.34 39.4893C177.34 39.2393 177.29 38.9993 177.19 38.7693C177.09 38.5393 176.94 38.3593 176.75 38.2193C176.56 38.0793 176.31 38.0093 176.02 38.0093C175.73 38.0093 175.49 38.0793 175.29 38.2193C175.09 38.3593 174.94 38.5493 174.83 38.7693C174.73 38.9893 174.68 39.2293 174.68 39.4893C174.68 39.7493 174.73 39.9793 174.83 40.2093C174.93 40.4393 175.08 40.6193 175.29 40.7693C175.5 40.9193 175.73 40.9793 176.02 40.9793Z" fill="white"/>
<path d="M179.97 42.2687V40.3887H181.9V42.2687H179.97Z" fill="white"/>
<path d="M183.21 40.1588V36.7188H184.91V39.9187C184.91 40.2387 184.99 40.4787 185.14 40.6687C185.29 40.8487 185.52 40.9388 185.82 40.9388C186.17 40.9388 186.44 40.8187 186.62 40.5687C186.8 40.3187 186.9 40.0387 186.9 39.7188V36.7288H188.59V42.2787H186.96L186.91 41.6888C186.73 41.8988 186.49 42.0788 186.19 42.2188C185.89 42.3587 185.58 42.4287 185.26 42.4287C184.63 42.4287 184.13 42.2387 183.75 41.8587C183.37 41.4787 183.19 40.9187 183.19 40.1787L183.21 40.1588Z" fill="white"/>
<path d="M189.87 42.2689V34.3789H191.57V38.4689L193.26 36.7189H195.19L193.2 38.7689L195.46 42.2689H193.48L192.06 39.9289L191.56 40.4389V42.2689H189.86H189.87Z" fill="white"/>
<path d="M2.05996 2.44875C0.359956 12.8488 0.789956 32.8488 2.05996 41.6287C9.42996 45.4987 25.74 44.9587 32.09 41.6287C33.32 31.4087 33.2799 14.1388 32.09 2.44875C25.82 -0.821249 7.11996 -0.811249 2.05996 2.44875Z" fill="white"/>
<path d="M32.09 2.44875C25.82 -0.821249 7.12001 -0.811249 2.06001 2.44875C1.70001 4.62875 1.44001 7.23875 1.26001 10.0787C4.85001 7.62875 11.06 4.21875 17.18 4.78875C26.57 5.66875 28.8 8.92875 28.8 12.4287C28.8 15.9287 23.87 20.0687 23.87 20.0687C23.87 20.0687 29.79 22.1488 27.81 28.5888C25.74 35.3587 14.56 36.4687 10.22 33.4387C7.39001 31.4687 6.77001 28.7087 6.60001 26.8887C6.37001 24.3787 6.68001 14.7387 6.68001 14.7387C6.68001 14.7387 13.1 14.0687 12.92 18.6087C12.8 21.6387 12.55 26.8387 13.02 27.7087C14.06 29.6187 16.03 30.3888 18.51 29.6187C20.83 28.8988 21.3 25.9987 20.25 24.6487C19.2 23.2987 14.96 21.0288 16.71 19.1988C18.46 17.3688 21.77 15.7587 21.25 12.4387C20.93 10.3987 11.38 5.75875 0.980009 17.4187C0.820009 26.4987 1.28001 36.2087 2.06001 41.6387C9.43001 45.5087 25.74 44.9687 32.09 41.6387C33.32 31.4187 33.28 14.1487 32.09 2.45875V2.44875ZM16.97 42.2587C15.72 42.2587 14.71 41.2487 14.71 39.9987C14.71 38.7487 15.72 37.7387 16.97 37.7387C18.22 37.7387 19.23 38.7487 19.23 39.9987C19.23 41.2487 18.22 42.2587 16.97 42.2587Z" fill="url(#paint0_linear_360_2414)"/>
<path d="M57.9199 24.3588C57.6299 23.7688 57.2799 23.2888 56.8599 22.8988C56.4399 22.5088 55.9999 22.2188 55.5399 22.0088C55.0699 21.7988 54.6599 21.6588 54.2999 21.5788C54.5399 21.5188 54.8299 21.3888 55.1799 21.1888C55.5299 20.9888 55.8499 20.7188 56.1599 20.3688C56.4699 20.0188 56.7299 19.6088 56.9599 19.1188C57.1899 18.6288 57.2999 18.0688 57.2999 17.4388C57.2999 16.7688 57.1799 16.1188 56.9399 15.4888C56.6999 14.8688 56.3099 14.3088 55.7799 13.8388C55.2399 13.3588 54.5499 12.9788 53.6999 12.6888C52.8499 12.3988 51.7999 12.2588 50.5699 12.2588H40.1599C40.1599 12.2588 40.1599 15.7388 42.9999 15.7388H50.1499C50.4699 15.7388 50.7899 15.7788 51.1199 15.8388C51.4499 15.9088 51.7399 16.0288 51.9999 16.1988C52.2599 16.3688 52.4599 16.5988 52.6199 16.8788C52.7799 17.1688 52.8599 17.5288 52.8599 17.9688C52.8599 18.4088 52.7799 18.7388 52.6199 19.0288C52.4599 19.3188 52.2599 19.5488 52.0099 19.7088C51.7599 19.8788 51.4699 19.9988 51.1499 20.0788C50.8199 20.1588 50.4899 20.1988 50.1499 20.1988H47.4999V18.4388C47.4999 16.3788 43.1199 16.8788 43.1199 16.8788V28.4688C43.1199 30.9688 44.3299 32.0988 46.2699 32.0988H50.5599C51.7499 32.0988 52.8299 31.9988 53.7899 31.7888C54.7499 31.5788 55.5699 31.2488 56.2299 30.7888C56.8999 30.3288 57.4099 29.7488 57.7799 29.0288C58.1499 28.3188 58.3299 27.4388 58.3299 26.4088C58.3299 25.6188 58.1899 24.9288 57.8999 24.3388L57.9199 24.3588ZM53.4599 27.4688C53.2299 27.8088 52.9499 28.0688 52.6099 28.2388C52.2699 28.4188 51.9099 28.5288 51.5099 28.5788C51.1099 28.6288 50.7599 28.6488 50.4399 28.6488H47.5199V23.4688H50.4399C50.7799 23.4688 51.1399 23.5088 51.5399 23.5688C51.9399 23.6388 52.2999 23.7688 52.6399 23.9588C52.9799 24.1488 53.2499 24.4088 53.4699 24.7488C53.6899 25.0888 53.7999 25.5188 53.7999 26.0588C53.7999 26.6588 53.6899 27.1188 53.4599 27.4588V27.4688Z" fill="white"/>
<defs>
<linearGradient id="paint0_linear_360_2414" x1="5.93001" y1="42.2087" x2="35.59" y2="-11.4612" gradientUnits="userSpaceOnUse">
<stop stop-color="#3F66AF"/>
<stop offset="1" stop-color="#4DC8F0"/>
</linearGradient>
</defs>
</svg>
