<svg width="35" height="34" viewBox="0 0 35 34" fill="none" xmlns="http://www.w3.org/2000/svg">
<path d="M13.7621 33.4536C14.1398 33.5386 14.5149 33.3013 14.5998 32.9235C14.6847 32.5458 14.4474 32.1708 14.0697 32.0858C10.5497 31.2858 7.54014 29.3204 5.41025 26.6521C3.28061 23.9841 2.03123 20.6126 2.03123 17C2.03123 12.7283 3.76261 8.86108 6.56185 6.06187C9.36108 3.26263 13.2283 1.53125 17.5 1.53125C21.7716 1.53125 25.6389 3.26263 28.4381 6.06187C31.2373 8.8611 32.9687 12.7284 32.9687 17C32.9687 18.774 32.6649 20.5192 32.0827 22.1636C31.4995 23.8111 30.6386 25.3583 29.5257 26.7331C29.2815 27.0334 29.3269 27.4749 29.6273 27.7191C29.9276 27.9633 30.3691 27.9178 30.6133 27.6175C31.831 26.1132 32.7714 24.4248 33.4066 22.6305C34.0429 20.8332 34.375 18.9301 34.375 17C34.375 12.3402 32.4861 8.12142 29.4323 5.06757C26.3785 2.01377 22.1597 0.124939 17.4999 0.124939C12.8401 0.124939 8.62136 2.01377 5.56751 5.06757C2.51371 8.12137 0.624878 12.3402 0.624878 17C0.624878 20.938 1.988 24.6147 4.31154 27.5255C6.63482 30.4361 9.91931 32.5803 13.7621 33.4536Z" fill="white"/>
<path d="M25.6322 31.7861C26.094 31.5296 26.1221 30.8815 25.6843 30.5854C25.4626 30.4397 25.1879 30.4266 24.9545 30.5539L24.9276 30.5687L24.9009 30.5833L24.8744 30.5977L24.8474 30.6123L24.8204 30.6268L24.7933 30.6413L24.7665 30.6556L24.7396 30.6699L24.7125 30.6843L24.6858 30.6983L24.6587 30.7124L24.6315 30.7266L24.6042 30.7407L24.5773 30.7547L24.5504 30.7684L24.5229 30.7825L24.4958 30.7963L24.4687 30.81L24.4415 30.8237L24.4142 30.8374L24.3869 30.8509L24.3598 30.8644L24.3323 30.8779L24.3049 30.8914L24.2777 30.9047L24.2502 30.9181L24.2227 30.9314L24.1953 30.9446L24.168 30.9577L24.1404 30.9708L24.1129 30.9839L24.0855 30.9968L24.0579 31.0097L24.0302 31.0226L24.0026 31.0355L23.9751 31.0482L23.9473 31.061L23.9198 31.0736L23.8922 31.0861L23.8643 31.0987L23.8365 31.1112L23.8087 31.1237L23.781 31.136L23.7534 31.1483C23.2699 31.3628 23.1825 32.0146 23.5965 32.3445C23.8038 32.5068 24.0759 32.5421 24.3174 32.4365L24.3521 32.4211L24.3826 32.4075L24.4127 32.394L24.4429 32.3804L24.4729 32.3669L24.5033 32.353L24.5336 32.3392L24.5636 32.3254L24.5939 32.3114L24.624 32.2974L24.654 32.2834L24.6839 32.2694L24.7142 32.2551L24.7442 32.2409L24.774 32.2266L24.8042 32.2122L24.8341 32.1978L24.8639 32.1833L24.8937 32.1689L24.9237 32.1542L24.9534 32.1396L24.9831 32.125L25.0131 32.1101L25.0428 32.0953L25.0725 32.0804L25.1022 32.0655L25.132 32.0504L25.1617 32.0353L25.191 32.0203L25.2208 32.005L25.2505 31.9897L25.2798 31.9745L25.3093 31.9592L25.3386 31.9438L25.3685 31.9281L25.3978 31.9126L25.4272 31.897L25.4567 31.8813L25.4859 31.8656L25.5151 31.8499L25.5443 31.8341L25.5738 31.8181L25.6031 31.8021L25.6322 31.7861ZM15.8644 32.382C15.3442 32.3282 14.949 32.8405 15.1335 33.3304C15.2299 33.5806 15.4511 33.7515 15.7179 33.7806C16.2 33.8307 16.6811 33.8622 17.1658 33.8716L17.1812 33.872C17.7162 33.8811 18.0635 33.3158 17.8166 32.8415C17.6944 32.613 17.4666 32.4719 17.2072 32.4659C16.7561 32.4562 16.3132 32.4286 15.8644 32.382ZM19.888 32.2832C19.3644 32.3679 19.1183 32.9701 19.4326 33.3978C19.5909 33.6073 19.8452 33.7132 20.1055 33.6725L20.1441 33.6665L20.177 33.6612L20.2094 33.656L20.2422 33.6506L20.2748 33.6452L20.3076 33.6397L20.34 33.6342L20.3727 33.6286L20.4054 33.6229L20.4378 33.6172L20.4704 33.6114L20.5031 33.6056L20.5357 33.5996L20.568 33.5937L20.6007 33.5876L20.6333 33.5815L20.6656 33.5753L20.6981 33.5691L20.7306 33.5628L20.7629 33.5564L20.7955 33.55L20.828 33.5435L20.8602 33.537L20.8927 33.5304L20.9252 33.5236L20.9574 33.5169L20.9898 33.5101L21.0222 33.5032L21.0544 33.4963L21.0868 33.4893L21.1192 33.4822L21.1513 33.4751L21.1837 33.4679L21.216 33.4607L21.2484 33.4533L21.2804 33.446L21.3124 33.4386L21.3451 33.431L21.3771 33.4235L21.409 33.4159L21.4416 33.4081L21.4735 33.4004L21.5055 33.3927L21.5377 33.3847L21.5445 33.383C22.0266 33.2611 22.234 32.6994 21.9478 32.2926C21.7791 32.0571 21.4868 31.9488 21.2053 32.0183L21.172 32.0265L21.1423 32.0337L21.1127 32.0409L21.0836 32.0478L21.0539 32.0549L21.0242 32.0618L20.9951 32.0686L20.9654 32.0755L20.9357 32.0823L20.9062 32.089L20.8767 32.0956L20.8472 32.1022L20.8174 32.1087L20.7879 32.1152L20.7584 32.1216L20.7286 32.128L20.6991 32.1342L20.6694 32.1405L20.6396 32.1467L20.61 32.1528L20.5804 32.1588L20.5504 32.1649L20.5208 32.1708L20.4912 32.1767L20.4613 32.1825L20.4315 32.1883L20.4019 32.194L20.3719 32.1997L20.3422 32.2053L20.3125 32.2108L20.2825 32.2163L20.2527 32.2218L20.2229 32.2271L20.1931 32.2324L20.1631 32.2377L20.1333 32.2429L20.1035 32.248L20.0734 32.2531L20.0436 32.2581L20.0137 32.263L19.9838 32.2679L19.9537 32.2728L19.9239 32.2776L19.888 32.2832Z" fill="white"/>
<path d="M31.7286 28.8321C32.1169 28.8321 32.4318 28.5173 32.4318 28.129C32.4318 27.7406 32.1169 27.4258 31.7286 27.4258H29.7403V25.4375C29.7403 25.0491 29.4254 24.7343 29.0371 24.7343C28.6488 24.7343 28.334 25.0491 28.334 25.4375V28.129C28.334 28.5173 28.6488 28.8321 29.0371 28.8321H31.7286Z" fill="white"/>
<path d="M9.12907 20.8791C9.27014 21.1328 9.59021 21.2241 9.84389 21.083C10.0976 20.9419 10.1889 20.6219 10.0478 20.3682C9.69474 19.7338 9.42552 19.0598 9.24471 18.363C9.06494 17.6703 8.97284 16.9504 8.97284 16.2201C8.97284 13.8654 9.92727 11.7336 11.4703 10.1905C13.0134 8.64748 15.1452 7.69305 17.4999 7.69305C19.8546 7.69305 21.9864 8.64748 23.5295 10.1905C25.0725 11.7336 26.027 13.8654 26.027 16.2201C26.027 16.9 25.9478 17.5694 25.7927 18.2147C25.6377 18.8594 25.4042 19.4911 25.0955 20.0962C24.9635 20.3556 25.0668 20.6729 25.3262 20.8048C25.5856 20.9368 25.9029 20.8335 26.0348 20.5741C26.3762 19.905 26.6374 19.1943 26.8144 18.4578C26.9913 17.7217 27.0816 16.9707 27.0816 16.2201C27.0816 13.5742 26.0091 11.1788 24.2752 9.44484C22.5412 7.71089 20.1458 6.63837 17.4999 6.63837C14.854 6.63837 12.4586 7.71089 10.7247 9.44481C8.99073 11.1788 7.91821 13.5742 7.91821 16.2201C7.91821 17.031 8.02285 17.8395 8.22714 18.6266C8.43032 19.4096 8.73262 20.1668 9.12907 20.8791Z" fill="white"/>
<path d="M17.8515 9.83747C17.8515 9.64333 17.694 9.4859 17.4999 9.4859C17.3057 9.4859 17.1483 9.64333 17.1483 9.83747V16.8685C17.1483 17.0626 17.3057 17.2201 17.4999 17.2201C17.694 17.2201 17.8515 17.0626 17.8515 16.8685V9.83747Z" fill="#EE4538"/>
<path d="M11.8359 15.8685C11.6418 15.8685 11.4844 16.0259 11.4844 16.22C11.4844 16.4142 11.6418 16.5716 11.8359 16.5716H17.9998C18.194 16.5716 18.3514 16.4142 18.3514 16.22C18.3514 16.0259 18.1939 15.8685 17.9998 15.8685H11.8359Z" fill="#EE4538"/>
<path d="M17.4999 16.7201C17.776 16.7201 17.9999 16.4962 17.9999 16.2201C17.9999 15.9439 17.776 15.7201 17.4999 15.7201C17.2237 15.7201 16.9999 15.9439 16.9999 16.2201C16.9999 16.4962 17.2237 16.7201 17.4999 16.7201Z" fill="#EE4538"/>
<path d="M14.6158 25.7444V26.8437H10.4686C10.5146 26.4285 10.6482 26.0347 10.8739 25.6625C11.098 25.2904 11.5421 24.7974 12.2031 24.1824C12.7377 23.6867 13.0639 23.3489 13.1846 23.1722C13.347 22.9279 13.4288 22.6865 13.4288 22.4479C13.4288 22.185 13.3585 21.9823 13.2162 21.8401C13.0739 21.6978 12.8785 21.6274 12.6284 21.6274C12.3813 21.6274 12.1858 21.7021 12.0393 21.8501C11.8941 21.9996 11.8093 22.2468 11.7863 22.5916L10.608 22.4738C10.6784 21.8228 10.8983 21.3558 11.269 21.0713C11.6398 20.7882 12.1025 20.6459 12.6586 20.6459C13.2679 20.6459 13.7464 20.8112 14.0942 21.1388C14.442 21.4679 14.6158 21.876 14.6158 22.3646C14.6158 22.6419 14.5655 22.9064 14.4664 23.1578C14.3672 23.4093 14.2091 23.6723 13.9936 23.9467C13.8499 24.1292 13.5912 24.3922 13.219 24.7342C12.8454 25.0762 12.6083 25.3047 12.5092 25.4168C12.41 25.5289 12.3281 25.6381 12.2663 25.7444L14.6158 25.7444ZM17.7356 26.8437V25.6022H15.2093V24.5661L17.8879 20.6459H18.8809V24.5618H19.6468V25.6022H18.8809V26.8437H17.7356ZM17.7356 24.5618V22.4522L16.3173 24.5618H17.7356ZM21.6428 20.6718V22.9408C22.025 22.4954 22.4806 22.2712 23.0108 22.2712C23.2838 22.2712 23.5282 22.3229 23.748 22.4235C23.9664 22.5241 24.1317 22.6534 24.2423 22.81C24.353 22.9681 24.4291 23.142 24.4694 23.3332C24.5111 23.5228 24.5312 23.8203 24.5312 24.2212V26.8437H23.3485V24.4813C23.3485 24.0128 23.3255 23.7154 23.281 23.5889C23.235 23.4625 23.1559 23.3633 23.0424 23.2886C22.9289 23.2139 22.7866 23.1765 22.6156 23.1765C22.4188 23.1765 22.2435 23.2239 22.0897 23.3202C21.9345 23.415 21.821 23.5587 21.7506 23.7513C21.6787 23.9438 21.6428 24.2284 21.6428 24.6034V26.8437H20.4601V20.6718L21.6428 20.6718Z" fill="#EE4538"/>
</svg>
