<svg width="81" height="80" viewBox="0 0 81 80" fill="none" xmlns="http://www.w3.org/2000/svg">
<path d="M52.27 26.6784C53.1409 26.9879 53.8842 27.5975 54.4006 28.3952C54.8891 29.1499 55.1777 30.0711 55.1777 31.0573C55.1777 32.2135 54.785 33.2757 54.1403 34.0838C53.6394 34.7117 52.9863 35.1886 52.2413 35.4462C51.6698 37.2323 50.9608 39.2355 50.0413 41.1179C48.9612 43.3291 47.5882 45.3818 45.7995 46.7714C45.0232 47.3745 44.1899 47.7233 43.2905 47.9201C42.4592 48.1021 41.5981 48.1468 40.6797 48.1468C39.7527 48.1468 38.8799 48.0965 38.0275 47.9036C37.1232 47.699 36.2846 47.3379 35.5014 46.7196C33.7274 45.3192 32.3687 43.2767 31.3014 41.0837C30.3898 39.2107 29.686 37.2211 29.118 35.4462C28.3731 35.1886 27.7199 34.7118 27.2191 34.0839C26.5744 33.2757 26.1817 32.2135 26.1817 31.0573C26.1817 30.2488 26.378 29.4806 26.7207 28.8103C27.0822 28.1033 27.6084 27.5116 28.2424 27.0995C28.3009 27.0615 28.354 27.0283 28.4281 26.9818C28.7347 26.7897 29.3719 26.3933 29.7642 26.0963L31.2681 28.0885C30.8697 28.3901 30.1209 28.8596 29.7548 29.089L29.5998 29.1893C29.3285 29.3657 29.0993 29.6265 28.9374 29.9431C28.7749 30.2611 28.6818 30.6411 28.6818 31.0573C28.6818 31.6326 28.8675 32.1491 29.1722 32.5311C29.4492 32.8783 29.8228 33.1098 30.2318 33.1557L31.0441 33.2469L31.2865 34.0248C31.859 35.8622 32.5827 38.0076 33.5475 39.99C34.4748 41.8952 35.6172 43.6398 37.0444 44.7665C37.5039 45.1292 38.0137 45.3451 38.5744 45.4719C39.1871 45.6106 39.8965 45.6467 40.6797 45.6467C41.447 45.6467 42.1472 45.6136 42.7632 45.4788C43.3112 45.3589 43.8118 45.1518 44.2662 44.7988C45.7123 43.6754 46.864 41.9305 47.7952 40.0242C48.7686 38.0315 49.4973 35.8724 50.0729 34.0248L50.3153 33.2469L51.1276 33.1557C51.5366 33.1098 51.9102 32.8783 52.1872 32.5311C52.492 32.149 52.6777 31.6326 52.6777 31.0573C52.6777 30.5594 52.5414 30.1089 52.3108 29.7526C52.0895 29.4108 51.7854 29.1547 51.4399 29.0319L52.27 26.6784Z" fill="#005A8C"/>
<path d="M46.964 48.7233C52.6505 49.6418 57.6503 52.0793 61.2158 55.459C64.7846 58.842 66.9297 63.1672 66.9297 67.88V68.75V70H65.6797H15.6797H14.4297V68.75V67.88C14.4297 63.1673 16.5748 58.842 20.1436 55.459C23.709 52.0793 28.7088 49.6418 34.3954 48.7233L35.144 48.6023L35.5966 49.2164C35.8489 49.5589 36.1233 49.8673 36.4151 50.1376C37.4199 51.0686 38.702 51.6601 40.0859 51.7563C41.4816 51.8531 42.9957 51.4432 44.4558 50.3672C44.937 50.0125 45.4059 49.5945 45.8557 49.109L46.3109 48.6177L46.964 48.7233ZM59.497 57.2656C56.4157 54.3447 52.118 52.201 47.2007 51.2931C46.781 51.7036 46.3567 52.0647 45.9303 52.3789C43.9591 53.8316 41.8722 54.3821 39.9198 54.2465C37.9555 54.1101 36.1416 53.276 34.7255 51.9638C34.4992 51.7541 34.2846 51.5349 34.0829 51.3069C29.1972 52.2229 24.9279 54.3597 21.8623 57.2656C18.8794 60.0932 17.0487 63.6501 16.9353 67.4999H64.4239C64.3105 63.6501 62.4799 60.0932 59.497 57.2656Z" fill="#EF4436"/>
<path d="M42.2528 14.0732L42.2527 14.0546L42.2517 14.0166L42.2205 12.5029L43.7068 12.7617C46.6967 13.2823 49.0304 14.6315 50.8696 16.4229C52.6714 18.1778 53.9775 20.3401 54.9527 22.5461C55.0949 22.868 55.2252 22.8997 55.3082 22.9199C56.0737 23.1056 56.5797 23.2285 56.5797 24.375V24.9604L56.1207 25.3369L50.0254 30.3369L49.2344 30.625H31.4122L30.5626 30.2881L25.1801 25.2881L24.7797 24.9161V24.375C24.7797 22.94 25.3992 22.9794 26.3553 23.0393C26.3723 23.0404 26.3086 23.0363 26.3444 22.9462C27.2657 20.6272 28.5488 18.3707 30.3573 16.5511C32.2067 14.6904 34.5844 13.2959 37.6525 12.7617L39.1389 12.5029L39.1076 14.0166L39.1068 14.0546L39.1066 14.0732L37.8755 14.0683L38.0725 15.2226C35.5685 15.6586 33.6304 16.7942 32.1249 18.3089C30.5784 19.8649 29.467 21.83 28.6589 23.8642C28.5228 24.2068 28.3714 24.4805 28.2113 24.6992L31.8991 28.125H48.7947L53.2319 24.4851C53.0343 24.2508 52.8425 23.9477 52.6676 23.552C51.8053 21.6015 50.6693 19.7079 49.1314 18.21C47.6306 16.7484 45.7265 15.6474 43.287 15.2227L43.4839 14.0684L42.2528 14.0732Z" fill="#005A8C"/>
<path d="M36.6114 21.7833V14.0682C36.6114 12.9481 37.0687 11.9307 37.8055 11.194C38.5422 10.4572 39.5596 9.99988 40.6797 9.99988C41.7998 9.99988 42.8173 10.4572 43.5539 11.194C44.2907 11.9308 44.7481 12.9482 44.7481 14.0682V21.7833H42.248V14.0682C42.248 13.6382 42.0711 13.2464 41.7863 12.9616C41.5015 12.6767 41.1096 12.4999 40.6797 12.4999C40.2498 12.4999 39.8579 12.6767 39.5731 12.9616C39.2883 13.2464 39.1115 13.6382 39.1115 14.0682V21.7833H36.6114Z" fill="#005A8C"/>
</svg>
