<svg width="70" height="48" viewBox="0 0 70 48" fill="none" xmlns="http://www.w3.org/2000/svg">
<path d="M2.91992 7.02673H67.0801C67.7342 7.02673 68.3277 7.29331 68.7571 7.72271C69.1865 8.15211 69.4531 8.74569 69.4531 9.39978V45.508C69.4531 46.1621 69.1865 46.7556 68.7571 47.185C68.3277 47.6144 67.7342 47.881 67.0801 47.881H2.91992C2.26583 47.881 1.67225 47.6144 1.24285 47.185C0.813453 46.7556 0.546875 46.1621 0.546875 45.508V9.39978C0.546875 8.74568 0.813454 8.15211 1.24285 7.72271C1.67226 7.29331 2.26583 7.02673 2.91992 7.02673ZM66.6406 9.8393H3.35938V45.0684H66.6406V9.8393Z" fill="#005A8C"/>
<path d="M35 12.3365C39.1744 12.3365 42.9538 14.0287 45.6895 16.7644C48.4252 19.5 50.1174 23.2794 50.1174 27.4538C50.1174 31.6282 48.4252 35.4075 45.6895 38.1433C42.9538 40.879 39.1745 42.5711 35 42.5711C30.8257 42.5711 27.0463 40.8789 24.3107 38.1433C21.575 35.4076 19.8828 31.6282 19.8828 27.4538C19.8828 23.2794 21.5749 19.5 24.3107 16.7644C27.0463 14.0287 30.8257 12.3365 35 12.3365ZM44.1981 18.2558C41.8442 15.9019 38.5921 14.4459 35 14.4459C31.408 14.4459 28.1559 15.9019 25.802 18.2558C23.4481 20.6096 21.9922 23.8617 21.9922 27.4538C21.9922 31.0458 23.4481 34.298 25.802 36.6518C28.1559 39.0057 31.408 40.4617 35 40.4617C38.5922 40.4617 41.8442 39.0057 44.1981 36.6518C46.552 34.2979 48.008 31.0459 48.008 27.4538C48.008 23.8617 46.5519 20.6096 44.1981 18.2558Z" fill="#EF4436"/>
<path d="M38.5879 23.3747C38.2914 22.5186 37.8362 21.9032 37.2902 21.5098C36.7162 21.0961 36.0229 20.9192 35.2984 20.9595C34.8138 20.9865 34.3285 21.1074 33.8861 21.3147C33.3482 21.567 32.8745 21.9477 32.548 22.4422C32.2303 22.9235 32.0516 23.5248 32.0912 24.2347C32.1217 24.7826 32.2789 25.3956 32.5953 26.0705C32.8726 26.662 32.5269 25.9225 32.8196 26.5437C34.3899 29.8778 34.8617 30.8804 33.2031 33.2476C33.5038 33.2476 33.8206 33.2719 34.1529 33.3268C35.6502 33.5739 36.5378 33.9109 37.2092 34.1658C38.0934 34.5015 38.4446 34.6347 40.1519 33.6771L41.1082 35.3831C38.6068 36.7862 38.0139 36.5612 36.5207 35.9942C35.9247 35.7679 35.1368 35.4687 33.8393 35.2546C31.9081 34.936 30.8722 36.1186 30.837 36.1595L30.836 36.1606L29.3596 34.883L29.3633 34.8787C32.7449 30.9714 32.6332 30.7337 31.0524 27.3776C30.9042 27.0629 31.2601 27.8179 30.8281 26.8968C30.3986 25.9808 30.184 25.1257 30.1404 24.3418C30.0757 23.1809 30.3797 22.1799 30.9186 21.3635C31.4487 20.5605 32.206 19.9479 33.0599 19.5475C33.7318 19.2326 34.4642 19.0492 35.1913 19.0087C36.3508 18.9441 37.4769 19.2394 38.4301 19.9261C39.2904 20.546 39.9942 21.4771 40.4315 22.7397L38.5879 23.3747Z" fill="#EF4436"/>
<path d="M30.3976 26.8093H36.8688V28.7677H30.3976V26.8093Z" fill="#EF4436"/>
<path d="M27.292 7.02672H42.7081V2.97556C42.7081 2.96498 42.7027 2.95423 42.6942 2.94567C42.6856 2.9371 42.6749 2.9317 42.6643 2.9317H27.3358C27.3252 2.9317 27.3145 2.9371 27.3059 2.94567C27.2973 2.95423 27.2919 2.96498 27.2919 2.97556L27.292 7.02672ZM44.1144 9.83929H25.8857C25.109 9.83929 24.4794 9.20964 24.4794 8.433V2.97557C24.4794 2.18855 24.8003 1.47414 25.3174 0.957128C25.8343 0.440112 26.5487 0.119141 27.3358 0.119141H42.6643C43.4513 0.119141 44.1658 0.440114 44.6827 0.957128C45.1997 1.47415 45.5207 2.18855 45.5207 2.97557V8.433C45.5207 9.20964 44.8911 9.83929 44.1144 9.83929Z" fill="#005A8C"/>
<path d="M13.1566 6.57486C13.1566 5.79823 12.5269 5.16858 11.7503 5.16858C10.9736 5.16858 10.344 5.79823 10.344 6.57486V8.15357C10.344 8.93021 10.9736 9.55986 11.7503 9.55986C12.5269 9.55986 13.1566 8.93021 13.1566 8.15357V6.57486Z" fill="#005A8C"/>
<path d="M59.656 6.57486C59.656 5.79823 59.0263 5.16858 58.2497 5.16858C57.473 5.16858 56.8434 5.79823 56.8434 6.57486V8.15357C56.8434 8.93021 57.473 9.55986 58.2497 9.55986C59.0263 9.55986 59.656 8.93021 59.656 8.15357V6.57486Z" fill="#005A8C"/>
</svg>
