<svg width="198" height="186" viewBox="0 0 198 186" fill="none" xmlns="http://www.w3.org/2000/svg">
<path d="M73.6162 179.282L98.1365 183.728C98.1365 183.728 134.149 183.847 166.453 171.542C174.902 62.6489 154.385 5.48432 154.385 5.48432C154.385 5.48432 141.711 1.67336 104.163 3.51976C92.3314 4.09583 70.5587 6.7251 63.4242 12.1314C57.1316 16.9025 46.9542 26.0902 43.0546 31.2158C56.8362 74.6136 73.6162 179.282 73.6162 179.282Z" fill="white"/>
<path d="M18.9929 92.7526C18.9929 92.7526 16.5556 78.2473 3.01041 68.646C2.64113 62.9148 12.1538 51.5705 22.3902 53.2248C31.3711 54.6872 35.5662 61.4524 35.9059 80.8618" fill="white"/>
<path d="M31.9173 83.683C21.1491 79.5619 13.084 67.0359 8.68217 58.2322C5.10753 61.5705 2.84761 65.8099 3.02486 68.6459C16.5701 78.2472 19.0073 92.7526 19.0073 92.7526L31.9173 83.683Z" fill="#D7E5F5"/>
<path d="M185.627 128.336C174.504 126.032 172.835 105.544 172.835 97.8634C172.835 92.6491 176.099 90.2858 178.936 89.1927C173.795 86.7554 168.522 87.5678 168.522 87.5678L168.123 138.396C178.167 138.396 183.293 132.472 185.642 128.336H185.627Z" fill="#D7E5F5"/>
<path d="M98.1365 183.728C98.1365 183.728 128.137 182.65 151.653 176.328C139.791 179.016 124.695 177.717 116.069 173.167C92.9222 160.981 93.2472 147.953 93.2472 147.953C93.2472 147.953 89.0226 168.972 84.5912 169.327C80.1599 169.681 50.3516 53.0624 59.4802 44.8644C68.6974 36.5925 76.216 57.021 76.216 57.021C76.216 57.021 73.8526 4.14015 156.66 13.0472C155.301 8.02497 154.385 5.46956 154.385 5.46956C154.385 5.46956 141.711 1.65859 104.163 3.50499C92.3314 4.08106 70.5587 6.71034 63.4242 12.1166C57.1316 16.8877 46.9542 26.0754 43.0546 31.201C56.8362 74.5988 73.6163 179.268 73.6163 179.268L98.1365 183.714V183.728Z" fill="#D7E5F5"/>
<path d="M93.6465 150.479C93.6465 150.479 141.55 153.817 168.093 139.784C167.68 145.87 167.665 152.827 167.665 152.827C167.665 152.827 135.434 167.849 95.3304 161.646C80.6626 162.369 70.8841 162.812 70.8841 162.812L68.6093 153.137L93.6612 150.479H93.6465Z" fill="#2F97CE"/>
<g style="mix-blend-mode:multiply">
<path d="M147.34 156.786C147.34 166.136 139.939 173.714 130.796 173.714C121.652 173.714 114.252 166.136 114.252 156.786C114.252 147.436 121.652 139.858 130.796 139.858C139.939 139.858 147.34 147.436 147.34 156.786Z" fill="#93CFF1"/>
</g>
<path d="M168.507 87.5679C168.507 87.5679 183.574 85.2341 187.606 100.242C187.606 100.242 195.435 99.8724 195.154 109.843C194.667 126.461 187.399 124.378 187.399 124.378C187.399 124.378 183.574 138.396 168.123 138.396" stroke="#283051" stroke-width="4.43136" stroke-miterlimit="10"/>
<path d="M105.98 86.6224C105.98 86.6224 117.28 118.351 144.799 105.249C144.622 91.7776 144.799 82.3683 144.799 82.3683" fill="#283051"/>
<path d="M143.011 104.658C137.428 91.9844 128.358 95.4114 125.197 97.5532C120.81 93.7422 114.99 95.1898 111.283 96.7555C117.191 104.274 127.457 111.66 143.026 104.643L143.011 104.658Z" fill="#E74328"/>
<path d="M91.224 135.574C94.6361 151.453 97.8268 167.377 100.338 183.492L95.936 183.965C94.9168 167.835 93.1738 151.69 91.224 135.574Z" fill="#283051"/>
<path d="M68.2696 10.0338L79.2889 71.9399L63.9564 11.0235L68.2696 10.0338Z" fill="#283051"/>
<path d="M98.7575 89.562C114.873 81.8367 136.365 77.4792 153.662 83.3434C134.991 83.0332 117.148 86.3567 98.7575 89.562Z" fill="#283051"/>
<path d="M87.8263 31.8952C86.1129 34.0518 88.3138 36.7992 88.3138 36.7992C88.3138 36.7992 106.837 35.5584 108.639 32.6042C110.441 29.65 106.689 25.7061 106.689 25.7061C106.689 25.7061 89.5398 29.7534 87.8263 31.91V31.8952Z" fill="#262C5A"/>
<path d="M125.389 14.5982C125.389 14.5982 122.597 19.8568 125.389 21.9838C128.181 24.1109 146.527 23.9484 146.527 23.9484C146.527 23.9484 148.093 21.2452 146.01 19.2659C143.912 17.3013 125.404 14.5834 125.404 14.5834L125.389 14.5982Z" fill="#262C5A"/>
<path d="M73.6162 179.282L98.1365 183.728C98.1365 183.728 134.149 183.847 166.453 171.542C174.902 62.6489 154.385 5.48432 154.385 5.48432C154.385 5.48432 141.711 1.67336 104.163 3.51976C92.3314 4.09583 70.5587 6.7251 63.4242 12.1314C57.1316 16.9025 46.9542 26.0902 43.0546 31.2158C56.8362 74.6136 73.6162 179.282 73.6162 179.282Z" stroke="#283051" stroke-width="4.43136" stroke-miterlimit="10"/>
<path d="M100.648 39.6649C92.6716 39.6649 98.6983 66.6667 98.6983 66.6667L111.269 65.677C110.323 54.9383 108.625 39.6649 100.648 39.6649Z" fill="#262C5A"/>
<path d="M92.819 68.513C98.2548 64.4066 105.168 63.0772 111.844 63.4021C114.075 63.6089 116.409 63.9782 118.388 65.1895C116.128 65.4406 114.075 65.8542 111.992 66.2678C105.788 67.4199 99.2002 69.1482 92.8043 68.513H92.819Z" fill="#262C5A"/>
<path d="M132.096 64.9827C138.684 62.3386 146.675 62.442 152.908 65.9576C145.877 66.2087 139.009 66.5041 132.096 64.9827Z" fill="#262C5A"/>
<path d="M109.304 93.373C109.304 93.373 134.991 89.6802 141.608 89.562C142.14 88.1883 142.007 84.5102 141.608 83.2842C132.051 81.6889 107.487 87.7894 107.487 87.7894L109.289 93.373H109.304Z" fill="white"/>
<path d="M107.723 87.0804C110.53 95.8841 117.029 104.555 126.512 106.46C136.202 108.381 145.685 103.875 154.518 100.035C150.648 103.27 146.232 105.914 141.387 107.657C127.797 112.708 114.547 108.203 107.797 95.116C106.556 92.7969 105.566 90.4483 104.872 87.819L107.738 87.0804H107.723Z" fill="#283051"/>
<path d="M105.98 105.146C112.716 112.413 122.524 115.072 132.125 114.466C135.05 114.304 139.082 113.742 141.978 113.373C130.441 119.06 111.253 119.267 105.995 105.146H105.98Z" fill="#D7E5F5"/>
<path d="M18.9929 92.7526C18.9929 92.7526 16.5556 78.2473 3.01041 68.646C2.64113 62.9148 12.1538 51.5705 22.3902 53.2248C31.3711 54.6872 35.5662 61.4524 35.9059 80.8618" stroke="#283051" stroke-width="4.43136" stroke-miterlimit="10"/>
<path d="M15.4473 96.4748C15.4473 96.4748 32.9216 75.544 53.4831 77.5234C74.0446 79.488 72.1982 92.1764 69.9825 97.7156C67.7668 103.255 62.2276 108.307 62.2276 108.307C62.2276 108.307 65.5659 114.215 63.0696 118.986C65.5659 119.016 73.9117 127.199 71.2824 136.49C68.3134 146.919 52.5673 149.873 42.6558 148.529C36.9984 147.76 35.3736 148.13 34.3839 148.839C33.3943 149.548 29.6572 151.882 20.1002 141.601C13.2612 134.245 14.9894 126.741 16.2302 126.002C17.4562 125.264 10.5432 105.84 15.462 96.4896L15.4473 96.4748Z" fill="white"/>
<path d="M186.941 99.178C186.941 99.178 189.689 118.706 185.863 126.682" stroke="#283051" stroke-width="2.95424" stroke-miterlimit="10"/>
<path d="M148.359 153.935C148.359 162.059 141.918 168.647 133.986 168.647C126.054 168.647 119.614 162.059 119.614 153.935C119.614 145.811 126.054 139.223 133.986 139.223C141.918 139.223 148.359 145.811 148.359 153.935Z" fill="white"/>
<path d="M149.821 153.935C150.265 165.265 138.211 174.039 127.591 169.46C116.852 165.22 114.001 150.124 122.317 142.177C132.731 131.837 149.703 139.577 149.821 153.92V153.935ZM146.897 153.935C147.207 142.576 132.894 136.49 125.213 144.998C120.633 149.829 120.693 157.997 125.331 162.768C133.1 171.011 146.793 165.132 146.897 153.935Z" fill="#283051"/>
<path d="M136.305 155.885C135.641 156.845 134.341 157.081 133.381 156.417C132.42 155.752 132.184 154.452 132.849 153.492C133.514 152.532 139.806 147.14 139.806 147.14C139.806 147.14 136.97 154.925 136.305 155.885Z" fill="#2F97CE"/>
<path d="M105.227 55.2485C105.758 58.5277 104.754 61.4081 102.996 61.7035C101.224 61.9989 99.3624 59.5764 98.8306 56.2972C98.2989 53.018 99.3033 50.1376 101.061 49.8422C102.834 49.5468 104.695 51.9692 105.227 55.2485Z" fill="white"/>
<path d="M138.447 39.6501C131.077 39.6501 136.645 64.6135 136.645 64.6135H148.27C147.384 54.6872 145.818 39.6501 138.447 39.6501Z" fill="#262C5A"/>
<path d="M142.687 54.0669C143.174 57.095 142.258 59.7686 140.619 60.0345C138.979 60.3003 137.251 58.0699 136.763 55.0418C136.276 52.0137 137.192 49.3401 138.831 49.0742C140.471 48.8084 142.199 51.0388 142.687 54.0669Z" fill="white"/>
<path d="M39.2737 100.301C28.5646 96.5044 34.7242 107.642 34.7242 107.642C34.7242 107.642 50.4998 106.061 61.7998 107.583C63.0997 106.283 65.8766 103.314 67.7821 99.887C60.2193 100.33 46.4673 102.841 39.2885 100.301H39.2737Z" fill="#D7E5F5"/>
<path d="M53.4244 122.694C50.8099 124.393 47.9 128.322 47.9 128.322C47.9 128.322 57.6194 126.224 63.5426 119.74C64.8425 118.44 64.5914 108.292 58.4909 107.568C55.6548 109.887 60.9872 117.775 53.4096 122.694H53.4244Z" fill="#D7E5F5"/>
<path d="M61.5926 110.404C52.6412 107.923 42.9956 108.262 33.8079 109.134L33.5421 107.435C35.9054 106.977 38.2836 106.549 40.6914 106.209C48.0622 105.264 55.492 104.717 62.8776 106.165L61.6073 110.404H61.5926Z" fill="#283051"/>
<path d="M42.6415 148.854C52.5677 150.198 68.3138 147.258 71.2681 136.815C72.627 132.014 71.0612 127.524 68.8898 124.289C68.7717 124.496 68.6683 124.747 68.5945 125.057C67.2355 130.847 52.1246 143.698 33.6606 133.181C17.8701 124.186 16.7179 101.704 16.7179 95.3818C15.8908 96.2681 15.4476 96.7999 15.4476 96.7999C10.5288 106.15 17.4418 125.574 16.2158 126.313C14.9898 127.051 13.2615 134.555 20.0858 141.911C29.628 152.177 33.3799 149.858 34.3695 149.149C35.3592 148.44 36.9841 148.071 42.6415 148.839V148.854Z" fill="#D7E5F5"/>
<path d="M15.4473 96.4748C15.4473 96.4748 32.9216 75.544 53.4831 77.5234C74.0446 79.488 72.1982 92.1764 69.9825 97.7156C67.7668 103.255 62.2276 108.307 62.2276 108.307C62.2276 108.307 65.5659 114.215 63.0696 118.986C65.5659 119.016 73.9117 127.199 71.2824 136.49C68.3134 146.919 52.5673 149.873 42.6558 148.529C36.9984 147.76 35.3736 148.13 34.3839 148.839C33.3943 149.548 29.6572 151.882 20.1002 141.601C13.2612 134.245 14.9894 126.741 16.2302 126.002C17.4562 125.264 10.5432 105.84 15.462 96.4896L15.4473 96.4748Z" stroke="#283051" stroke-width="4.43136" stroke-miterlimit="10"/>
<path d="M65.5809 118.676C61.8291 124.983 54.8276 128.41 47.8112 129.577L47.442 127.952C50.4848 126.992 53.4242 125.604 55.9501 123.684C58.2249 121.881 60.4258 119.533 61.5337 116.874L65.5809 118.676Z" fill="#283051"/>
<path d="M15.8022 121.719C17.8406 130.463 28.8009 141.616 37.9147 147.273" stroke="#283051" stroke-width="2.95424" stroke-miterlimit="10"/>
<path d="M168.507 87.5679C168.507 87.5679 183.574 85.2341 187.606 100.242C187.606 100.242 195.435 99.8724 195.154 109.843C194.667 126.461 187.399 124.378 187.399 124.378C187.399 124.378 183.574 138.396 168.123 138.396" stroke="#283051" stroke-width="4.43136" stroke-miterlimit="10"/>
<path d="M22.7596 124.156L22.7891 130.212C22.6562 133.078 18.3725 132.31 19.244 129.577L21.3859 123.92C21.637 123.196 22.7743 123.403 22.7596 124.171V124.156Z" fill="#283051"/>
<path d="M27.7963 130.272L25.9647 134.599C24.7534 137.066 21.3118 134.673 23.2173 132.679L26.659 129.459C27.1907 128.927 28.1213 129.592 27.7963 130.257V130.272Z" fill="#283051"/>
<path d="M181.934 103.299L187.369 104.953C188.271 105.219 188.773 106.18 188.507 107.081C188.197 108.203 186.764 108.661 185.863 107.952L181.313 104.555C180.678 104.112 181.225 103.063 181.948 103.314L181.934 103.299Z" fill="#283051"/>
<path d="M180.339 110.537L187.326 110.197C189.881 110.197 189.527 114.008 187.015 113.536L180.206 111.926C179.423 111.763 179.541 110.552 180.339 110.537Z" fill="#283051"/>
<path d="M182.45 117.583L186.911 115.869C189.526 115.042 190.191 119.163 187.443 119.178L182.672 118.942C181.919 118.942 181.741 117.804 182.45 117.568V117.583Z" fill="#283051"/>
<path d="M33.173 135.471L28.9927 138.676C26.7918 140.213 24.9455 136.534 27.4861 135.678L32.5526 134.215C33.2764 133.979 33.7934 135.028 33.1878 135.456L33.173 135.471Z" fill="#283051"/>
</svg>
