<svg width="50" height="50" viewBox="0 0 50 50" fill="none" xmlns="http://www.w3.org/2000/svg">
<path d="M22.6967 42.0944C20.7132 41.8821 18.7639 41.3219 16.9489 40.4174C15.1995 39.5455 13.5717 38.3524 12.1545 36.841C8.95605 33.4299 7.44297 29.0451 7.58229 24.7137C7.72169 20.3815 9.51287 16.1032 12.9227 12.9059C14.4734 11.4519 16.2293 10.3452 18.0929 9.58289C20.0237 8.79315 22.0672 8.3765 24.115 8.32953L24.1456 9.88596C22.286 9.92863 20.4309 10.3067 18.6789 11.0233C16.9948 11.7122 15.4029 12.7171 13.9909 14.0412C10.8927 16.9462 9.26523 20.8307 9.13873 24.7626C9.01223 28.6951 10.3859 32.676 13.2898 35.7729C14.575 37.1435 16.0537 38.2268 17.6447 39.0197C19.296 39.8427 21.0651 40.3518 22.8616 40.5441L22.6967 42.0944Z" fill="white"/>
<path d="M20.9954 6.37122L24.6429 8.2275L25.5492 8.6887L24.8688 9.44515L22.3816 12.2101L21.222 11.1663L23.0287 9.15789L20.2874 7.76285L20.9954 6.37122Z" fill="white"/>
<path d="M27.3033 7.90558C29.2869 8.11795 31.2362 8.67808 33.0512 9.58265C34.8005 10.4545 36.4283 11.6475 37.8455 13.159C41.044 16.5701 42.5571 20.9549 42.4177 25.2864C42.2784 29.6186 40.4872 33.8968 37.0773 37.0941C35.5267 38.5481 33.7708 39.6548 31.9071 40.4171C29.9764 41.2069 27.9328 41.6235 25.885 41.6705L25.8545 40.114C27.7141 40.0714 29.5691 39.6933 31.3212 38.9767C33.0053 38.2878 34.5971 37.2829 36.0092 35.9589C39.1074 33.0538 40.7348 29.1693 40.8613 25.2375C40.9878 21.3049 39.6141 17.324 36.7102 14.2271C35.4251 12.8565 33.9464 11.7733 32.3554 10.9804C30.7041 10.1574 28.9349 9.64827 27.1385 9.45593L27.3033 7.90558Z" fill="white"/>
<path d="M29.0046 43.6288L25.357 41.7725L24.4508 41.3113L25.1312 40.5549L27.6184 37.7899L28.778 38.8336L26.9714 40.8421L29.7127 42.2372L29.0046 43.6288Z" fill="white"/>
<path d="M25 14.4531C27.9123 14.4531 30.5491 15.6337 32.4577 17.5423C34.3663 19.4509 35.5468 22.0877 35.5468 25C35.5468 27.9123 34.3663 30.5491 32.4577 32.4577C30.549 34.3663 27.9123 35.5468 25 35.5468C22.0876 35.5468 19.4509 34.3663 17.5423 32.4577C15.6337 30.549 14.4531 27.9123 14.4531 25C14.4531 22.0876 15.6337 19.4509 17.5423 17.5423C19.4509 15.6337 22.0877 14.4531 25 14.4531ZM31.3529 18.647C29.7272 17.0212 27.481 16.0157 25 16.0157C22.5189 16.0157 20.2728 17.0212 18.647 18.647C17.0212 20.2728 16.0156 22.519 16.0156 25C16.0156 27.481 17.0212 29.7272 18.647 31.353C20.2728 32.9788 22.5189 33.9844 25 33.9844C27.481 33.9844 29.7272 32.9788 31.3529 31.353C32.9787 29.7272 33.9843 27.481 33.9843 25C33.9843 22.519 32.9788 20.2728 31.3529 18.647Z" fill="white"/>
<path d="M27.4336 21.8692C27.2392 21.3077 26.9407 20.9041 26.5825 20.646C26.2061 20.3748 25.7514 20.2587 25.2762 20.2851C24.9584 20.3028 24.6401 20.3821 24.35 20.5181C23.9972 20.6836 23.6865 20.9332 23.4724 21.2576C23.264 21.5733 23.1468 21.9676 23.1727 22.4332C23.1927 22.7926 23.2958 23.1946 23.5033 23.6373C23.6853 24.0252 23.4585 23.5402 23.6505 23.9476C24.6804 26.1343 24.9898 26.7918 23.902 28.3444C24.0992 28.3444 24.307 28.3604 24.525 28.3963C25.507 28.5584 26.0891 28.7794 26.5295 28.9466C27.1094 29.1668 27.3397 29.2542 28.4594 28.6261L29.0866 29.745C27.4461 30.6652 27.0572 30.5176 26.0779 30.1458C25.687 29.9974 25.1703 29.8011 24.3193 29.6607C23.0526 29.4518 22.3733 30.2274 22.3502 30.2542L22.3495 30.2549L21.3812 29.417L21.3836 29.4142C23.6015 26.8515 23.5282 26.6956 22.4915 24.4945C22.3942 24.2881 22.6277 24.7833 22.3443 24.1791C22.0627 23.5784 21.9219 23.0176 21.8933 22.5034C21.8509 21.7421 22.0502 21.0855 22.4037 20.5501C22.7513 20.0234 23.2481 19.6217 23.8081 19.3591C24.2488 19.1525 24.7291 19.0323 25.206 19.0057C25.9665 18.9633 26.705 19.157 27.3302 19.6074C27.8944 20.014 28.356 20.6246 28.6428 21.4527L27.4336 21.8692Z" fill="#EF4436"/>
<path d="M22.062 24.1218H26.3062V25.4062H22.062V24.1218Z" fill="#EF4436"/>
</svg>
