<svg width="35" height="32" viewBox="0 0 35 32" fill="none" xmlns="http://www.w3.org/2000/svg">
<path d="M5.00867 5.74245L6.50483 4.23163L7.91508 4.8061L6.0079 6.73197C5.27478 7.47227 4.97283 8.51648 5.07687 9.60231C5.09236 9.76399 5.11681 9.92655 5.15003 10.0892C4.66504 10.0229 4.15311 9.90828 3.68216 9.72703C3.54186 8.23632 3.97262 6.78867 5.00867 5.74245ZM7.67477 3.05022L8.46166 2.25562C9.5001 1.207 10.9477 0.762473 12.4434 0.891119C13.8928 1.01574 15.3885 1.68322 16.5802 2.86339L33.0984 19.2212C33.6462 19.7636 33.9602 20.4533 34.0247 21.1275C34.0938 21.8477 33.8831 22.5508 33.3761 23.0627L26.0579 30.4527C25.5509 30.9647 24.85 31.1822 24.129 31.1202C23.4543 31.0622 22.7616 30.7549 22.2138 30.2125L5.69563 13.8547C4.92032 13.0869 4.36082 12.1883 4.02619 11.2554C4.57445 11.3939 5.13681 11.4744 5.67072 11.5075C5.92915 11.9854 6.26805 12.4424 6.68518 12.8555L23.2034 29.2133C23.5143 29.5212 23.8922 29.6943 24.2504 29.7251C24.5625 29.752 24.857 29.6668 25.0587 29.4632L32.3769 22.0732C32.5785 21.8696 32.6608 21.5742 32.6309 21.2624C32.5966 20.9045 32.4199 20.5284 32.1089 20.2204L15.5907 3.86262C14.6357 2.91693 13.455 2.38359 12.322 2.28617C11.2352 2.19269 10.194 2.50484 9.4609 3.24514L9.00614 3.70436L7.67477 3.05022Z" fill="white"/>
<path d="M8.73612 5.97841C9.21273 5.49713 9.84085 5.25459 10.4709 5.25149C11.1002 5.24846 11.7309 5.48555 12.2135 5.96354C12.6948 6.44015 12.9374 7.06827 12.9404 7.69835C12.9435 8.32763 12.7064 8.95827 12.2284 9.44095C11.7518 9.92223 11.1237 10.1648 10.4936 10.1679C9.86431 10.1709 9.23365 9.9338 8.75099 9.45582C8.26971 8.97921 8.02717 8.35109 8.02408 7.72101C8.02104 7.09172 8.25814 6.46109 8.73612 5.97841ZM10.4764 6.65228C10.2069 6.65358 9.93687 6.75868 9.7304 6.96718C9.52532 7.17428 9.42357 7.44514 9.42487 7.71551C9.42616 7.98505 9.53127 8.25508 9.73977 8.46155C9.94686 8.66662 10.2177 8.76838 10.4881 8.76708C10.7576 8.76578 11.0277 8.66068 11.2341 8.45218C11.4392 8.24508 11.541 7.97422 11.5397 7.70385C11.5384 7.43431 11.4333 7.16428 11.2248 6.95781C11.0177 6.75274 10.7468 6.65098 10.4764 6.65228Z" fill="white"/>
<path d="M13.2518 14.4086L17.2098 10.4118L17.7021 9.91467L18.2013 10.409L29.1926 21.2936L29.6898 21.7859L29.1954 22.2851L25.2374 26.282L24.7451 26.7791L24.2459 26.2847L13.2546 15.4001L12.7574 14.9079L13.2518 14.4086ZM17.7118 11.8977L14.7405 14.8982L24.7354 24.7961L27.7067 21.7956L17.7118 11.8977Z" fill="#EE4538"/>
<path d="M2.83219 4.44292C3.68912 3.5776 4.81575 3.14148 5.94445 3.13598C7.07316 3.13048 8.20401 3.55554 9.06936 4.41248C11.5599 6.87888 11.5579 8.69461 10.4161 9.84763C9.49827 10.7744 7.80589 11.2191 6.1154 11.1948C4.42945 11.1705 2.72306 10.6801 1.7707 9.73702C0.593288 8.57104 0.508893 6.78901 2.83219 4.44292ZM5.94788 3.83904C4.9992 3.84366 4.05216 4.21026 3.33179 4.93769C1.3708 6.91791 1.3667 8.34737 2.26544 9.2374C3.08504 10.049 4.60457 10.4717 6.12559 10.4936C7.64207 10.5154 9.13789 10.1391 9.91648 9.35286C10.7828 8.47804 10.6989 7.01578 8.57458 4.91211C7.84714 4.19174 6.8966 3.8344 5.94788 3.83904Z" fill="white"/>
</svg>
