<svg width="50" height="50" viewBox="0 0 50 50" fill="none" xmlns="http://www.w3.org/2000/svg">
<path d="M25 7.03125C26.0048 7.03125 26.4415 7.77636 26.8845 8.5322C27.103 8.90501 27.3246 9.28293 27.4856 9.30842C27.6435 9.33342 27.9713 9.04218 28.2947 8.75486C28.9487 8.17362 29.5936 7.60061 30.5524 7.91214C31.5111 8.22368 31.6962 9.06712 31.8839 9.9227C31.9761 10.3431 32.0696 10.7693 32.2132 10.8424C32.3593 10.9168 32.76 10.7415 33.1554 10.5686C33.9569 10.218 34.7471 9.87241 35.5603 10.4633C36.3751 11.0553 36.2905 11.914 36.2047 12.7851C36.1625 13.2138 36.1197 13.6483 36.2358 13.7643C36.3518 13.8803 36.7863 13.8375 37.2149 13.7953C38.086 13.7095 38.9448 13.625 39.5368 14.4397C40.1276 15.2529 39.782 16.0431 39.4315 16.8446C39.2585 17.24 39.0832 17.6408 39.1577 17.7869C39.2308 17.9304 39.6569 18.0239 40.0773 18.1161C40.9329 18.3039 41.7764 18.489 42.0879 19.4477C42.3994 20.4065 41.8264 21.0513 41.2452 21.7054C40.9579 22.0288 40.6666 22.3566 40.6916 22.5145C40.7171 22.6755 41.095 22.897 41.4679 23.1155C42.2237 23.5585 42.9688 23.9953 42.9688 25C42.9688 26.0048 42.2237 26.4415 41.4679 26.8845C41.095 27.103 40.7171 27.3246 40.6916 27.4856C40.6666 27.6435 40.9579 27.9713 41.2452 28.2947C41.8264 28.9487 42.3994 29.5936 42.0879 30.5524C41.7764 31.5111 40.9329 31.6962 40.0773 31.8839C39.6569 31.9761 39.2308 32.0696 39.1577 32.2132C39.0832 32.3593 39.2585 32.76 39.4315 33.1554C39.782 33.9569 40.1276 34.7471 39.5368 35.5603C38.9448 36.3751 38.086 36.2905 37.2149 36.2047C36.7863 36.1625 36.3518 36.1197 36.2358 36.2358C36.1197 36.3518 36.1625 36.7863 36.2047 37.2149C36.2905 38.086 36.3751 38.9448 35.5603 39.5368C34.7471 40.1276 33.9569 39.782 33.1554 39.4315C32.76 39.2585 32.3593 39.0832 32.2132 39.1577C32.0696 39.2308 31.9761 39.6569 31.8839 40.0773C31.6962 40.9329 31.5111 41.7764 30.5524 42.0879C29.5936 42.3994 28.9487 41.8264 28.2947 41.2452C27.9713 40.9579 27.6435 40.6666 27.4856 40.6916C27.3246 40.7171 27.103 41.095 26.8845 41.4679C26.4415 42.2237 26.0048 42.9688 25 42.9688C23.9953 42.9688 23.5585 42.2237 23.1155 41.4679C22.897 41.095 22.6755 40.7171 22.5145 40.6916C22.3566 40.6666 22.0288 40.9579 21.7054 41.2452C21.0513 41.8264 20.4065 42.3994 19.4477 42.0879C18.489 41.7764 18.3039 40.9329 18.1161 40.0773C18.0239 39.6569 17.9304 39.2308 17.7869 39.1577C17.6408 39.0832 17.24 39.2585 16.8446 39.4315C16.0431 39.782 15.2529 40.1276 14.4397 39.5368C13.625 38.9448 13.7095 38.086 13.7953 37.2149C13.8375 36.7863 13.8803 36.3518 13.7643 36.2358C13.6483 36.1197 13.2138 36.1625 12.7851 36.2047C11.914 36.2905 11.0553 36.3751 10.4633 35.5603C9.87241 34.7471 10.218 33.9569 10.5686 33.1554C10.7415 32.76 10.9168 32.3593 10.8424 32.2132C10.7693 32.0696 10.3431 31.9761 9.9227 31.8839C9.06712 31.6962 8.22369 31.5111 7.91214 30.5524C7.60061 29.5936 8.17362 28.9487 8.75486 28.2947C9.04218 27.9713 9.33342 27.6435 9.30842 27.4856C9.28293 27.3246 8.90501 27.103 8.5322 26.8845C7.77636 26.4415 7.03125 26.0048 7.03125 25C7.03125 23.9953 7.77636 23.5585 8.5322 23.1155C8.90501 22.897 9.28293 22.6755 9.30842 22.5145C9.33342 22.3566 9.04218 22.0288 8.75486 21.7054C8.17362 21.0513 7.60061 20.4065 7.91214 19.4477C8.22368 18.489 9.06712 18.3039 9.9227 18.1161C10.3431 18.0239 10.7693 17.9304 10.8424 17.7869C10.9168 17.6408 10.7415 17.24 10.5686 16.8446C10.218 16.0431 9.87241 15.2529 10.4633 14.4397C11.0553 13.625 11.914 13.7095 12.7851 13.7953C13.2138 13.8375 13.6483 13.8803 13.7643 13.7643C13.8803 13.6483 13.8375 13.2138 13.7953 12.7851C13.7095 11.914 13.625 11.0553 14.4397 10.4633C15.2529 9.87241 16.0431 10.218 16.8446 10.5686C17.24 10.7415 17.6408 10.9168 17.7869 10.8424C17.9304 10.7693 18.0239 10.3431 18.1161 9.9227C18.3039 9.06712 18.489 8.22369 19.4477 7.91214C20.4065 7.60061 21.0513 8.17363 21.7054 8.75486C22.0288 9.04218 22.3566 9.33342 22.5145 9.30842C22.6755 9.28293 22.897 8.90501 23.1155 8.5322C23.5585 7.77636 23.9953 7.03125 25 7.03125ZM25.5418 9.31958C25.3276 8.95412 25.1164 8.59379 25 8.59379C24.8837 8.59379 24.6725 8.95412 24.4583 9.31958C24.0547 10.0081 23.6457 10.706 22.7586 10.8465C21.8685 10.9875 21.264 10.4504 20.6678 9.92063C20.3503 9.63853 20.0373 9.36041 19.9299 9.39533C19.8224 9.43025 19.7328 9.83836 19.642 10.2523C19.4706 11.0336 19.2968 11.8254 18.4949 12.234C17.6955 12.6413 16.9538 12.3169 16.2221 11.9968C15.8328 11.8265 15.4489 11.6587 15.3552 11.7267C15.263 11.7937 15.304 12.2101 15.3456 12.6325C15.424 13.4282 15.5034 14.2347 14.869 14.869C14.2347 15.5034 13.4282 15.424 12.6325 15.3456C12.2101 15.304 11.7937 15.263 11.7267 15.3552C11.6587 15.4489 11.8265 15.8328 11.9968 16.2221C12.3169 16.9538 12.6413 17.6955 12.234 18.4949C11.8254 19.2968 11.0336 19.4706 10.2523 19.642C9.83836 19.7328 9.43025 19.8224 9.39533 19.9299C9.36041 20.0373 9.63853 20.3503 9.92063 20.6678C10.4505 21.264 10.9875 21.8685 10.8465 22.7586C10.706 23.6457 10.0081 24.0547 9.31958 24.4583C8.95412 24.6725 8.59379 24.8837 8.59379 25C8.59379 25.1164 8.95412 25.3276 9.31958 25.5418C10.0081 25.9453 10.7061 26.3544 10.8465 27.2415C10.9875 28.1316 10.4505 28.736 9.92063 29.3323C9.63853 29.6497 9.36041 29.9627 9.39533 30.0702C9.43025 30.1777 9.83836 30.2672 10.2523 30.358C11.0336 30.5294 11.8254 30.7033 12.234 31.5052C12.6413 32.3045 12.3169 33.0462 11.9968 33.778C11.8265 34.1672 11.6587 34.5511 11.7267 34.6448C11.7937 34.737 12.2101 34.696 12.6325 34.6544C13.4282 34.5761 14.2347 34.4967 14.869 35.131C15.5034 35.7654 15.424 36.5718 15.3456 37.3675C15.304 37.7899 15.263 38.2063 15.3552 38.2733C15.4489 38.3414 15.8328 38.1735 16.2221 38.0032C16.9538 37.6832 17.6955 37.3588 18.4949 37.7661C19.2968 38.1746 19.4706 38.9665 19.642 39.7478C19.7328 40.1617 19.8224 40.5698 19.9299 40.6047C20.0373 40.6396 20.3503 40.3615 20.6678 40.0794C21.264 39.5496 21.8685 39.0126 22.7586 39.1535C23.6457 39.294 24.0547 39.9919 24.4583 40.6805C24.6725 41.0459 24.8837 41.4063 25 41.4063C25.1164 41.4063 25.3276 41.0459 25.5418 40.6805C25.9453 39.9919 26.3544 39.294 27.2415 39.1535C28.1316 39.0126 28.736 39.5496 29.3323 40.0794C29.6497 40.3615 29.9627 40.6396 30.0702 40.6047C30.1777 40.5698 30.2672 40.1617 30.358 39.7478C30.5294 38.9665 30.7033 38.1746 31.5052 37.7661C32.3045 37.3588 33.0462 37.6832 33.778 38.0032C34.1672 38.1735 34.5511 38.3414 34.6448 38.2733C34.737 38.2063 34.696 37.7899 34.6544 37.3675C34.5761 36.5718 34.4967 35.7654 35.131 35.131C35.7654 34.4967 36.5718 34.5761 37.3675 34.6544C37.7899 34.696 38.2063 34.737 38.2733 34.6448C38.3414 34.5511 38.1735 34.1672 38.0032 33.778C37.6832 33.0462 37.3588 32.3045 37.7661 31.5052C38.1746 30.7033 38.9665 30.5294 39.7478 30.358C40.1617 30.2672 40.5698 30.1777 40.6047 30.0702C40.6396 29.9627 40.3615 29.6497 40.0794 29.3323C39.5496 28.736 39.0126 28.1316 39.1535 27.2415C39.294 26.3544 39.9919 25.9453 40.6805 25.5418C41.0459 25.3276 41.4063 25.1164 41.4063 25C41.4063 24.8837 41.0459 24.6725 40.6805 24.4583C39.9919 24.0547 39.294 23.6457 39.1535 22.7586C39.0126 21.8685 39.5496 21.264 40.0794 20.6678C40.3615 20.3503 40.6396 20.0373 40.6047 19.9299C40.5698 19.8224 40.1617 19.7328 39.7478 19.642C38.9665 19.4706 38.1746 19.2968 37.7661 18.4949C37.3588 17.6955 37.6832 16.9538 38.0032 16.2221C38.1735 15.8328 38.3414 15.4489 38.2733 15.3552C38.2063 15.263 37.7899 15.304 37.3675 15.3456C36.5718 15.424 35.7654 15.5034 35.131 14.869C34.4967 14.2347 34.5761 13.4282 34.6544 12.6325C34.696 12.2101 34.737 11.7937 34.6448 11.7267C34.5511 11.6587 34.1672 11.8265 33.778 11.9968C33.0462 12.3169 32.3045 12.6413 31.5052 12.234C30.7033 11.8254 30.5294 11.0336 30.358 10.2523C30.2672 9.83836 30.1777 9.43025 30.0702 9.39533C29.9627 9.36041 29.6497 9.63853 29.3323 9.92063C28.736 10.4505 28.1316 10.9875 27.2415 10.8465C26.3544 10.706 25.9453 10.0081 25.5418 9.31958Z" fill="white"/>
<path d="M25 11.7187C28.6674 11.7187 31.9878 13.2053 34.3913 15.6087C36.7947 18.0122 38.2813 21.3326 38.2813 25C38.2813 28.6674 36.7947 31.9878 34.3913 34.3913C31.9878 36.7947 28.6674 38.2813 25 38.2813C21.3326 38.2813 18.0122 36.7947 15.6087 34.3913C13.2053 31.9878 11.7187 28.6674 11.7187 25C11.7187 21.3326 13.2053 18.0122 15.6087 15.6087C18.0122 13.2053 21.3326 11.7187 25 11.7187ZM33.2865 16.7135C31.1659 14.5929 28.2361 13.2812 25 13.2812C21.7639 13.2812 18.8341 14.5929 16.7135 16.7135C14.5929 18.8341 13.2813 21.7639 13.2813 25C13.2813 28.2361 14.5929 31.1659 16.7135 33.2865C18.8341 35.4071 21.7639 36.7187 25 36.7187C28.2361 36.7187 31.1659 35.4071 33.2865 33.2865C35.4071 31.1659 36.7188 28.2361 36.7188 25C36.7188 21.7639 35.4071 18.8341 33.2865 16.7135Z" fill="#EE4538"/>
<path d="M19.1627 22.0724C19.1627 21.0806 19.3791 20.3465 19.8145 19.8673C20.2498 19.3908 20.8397 19.1512 21.5842 19.1512C22.3544 19.1512 22.9572 19.3882 23.3925 19.8648C23.8279 20.3387 24.0443 21.0755 24.0443 22.0724C24.0443 23.0616 23.8279 23.7983 23.3925 24.2749C22.9572 24.754 22.3673 24.991 21.6228 24.991C20.8526 24.991 20.2498 24.754 19.8145 24.28C19.3791 23.8035 19.1627 23.0667 19.1627 22.0724ZM20.814 22.0569C20.814 22.7756 20.899 23.2599 21.0638 23.5046C21.1901 23.6875 21.3626 23.7777 21.5842 23.7777C21.8109 23.7777 21.986 23.6875 22.1122 23.5046C22.2745 23.2599 22.3544 22.7756 22.3544 22.0569C22.3544 21.3357 22.2745 20.8565 22.1122 20.6144C21.986 20.4289 21.8109 20.3362 21.5842 20.3362C21.3626 20.3362 21.1901 20.4263 21.0638 20.6066C20.899 20.8539 20.814 21.3357 20.814 22.0569ZM23.1993 30.8256H21.6306L27.5245 19.1512H29.0495L23.1993 30.8256ZM26.6254 27.9199C26.6254 26.9281 26.8444 26.194 27.2797 25.7174C27.7151 25.2383 28.3101 24.9987 29.0649 24.9987C29.8222 24.9987 30.4199 25.2383 30.8552 25.7174C31.2906 26.194 31.5095 26.9281 31.5095 27.9199C31.5095 28.9168 31.2906 29.6536 30.8552 30.1327C30.4199 30.6093 29.83 30.8488 29.0855 30.8488C28.3153 30.8488 27.7151 30.6093 27.2797 30.1327C26.8444 29.6536 26.6254 28.9168 26.6254 27.9199ZM28.2792 27.9122C28.2792 28.6309 28.3617 29.1126 28.5265 29.3547C28.6528 29.5402 28.8279 29.6329 29.0494 29.6329C29.2762 29.6329 29.4487 29.5428 29.5698 29.3625C29.7347 29.1152 29.8171 28.6309 29.8171 27.9122C29.8171 27.1935 29.7372 26.7092 29.5775 26.4645C29.4513 26.2816 29.2762 26.1914 29.0494 26.1914C28.8228 26.1914 28.6476 26.2816 28.5265 26.4645C28.3617 26.7092 28.2792 27.1935 28.2792 27.9122Z" fill="white"/>
</svg>
