<svg width="12" height="12" viewBox="0 0 12 12" fill="none" xmlns="http://www.w3.org/2000/svg">
<path d="M5.39635 1.69677C5.51743 1.45139 5.57802 1.3287 5.66021 1.2895C5.73173 1.25539 5.81487 1.25539 5.88639 1.2895C5.96864 1.3287 6.02917 1.45139 6.1503 1.69677L7.29944 4.02477C7.33518 4.09721 7.35304 4.13343 7.37916 4.16156C7.40234 4.18646 7.43008 4.20663 7.46088 4.22096C7.49572 4.23715 7.53566 4.24299 7.61559 4.25467L10.186 4.63038C10.4567 4.66994 10.592 4.68972 10.6547 4.75584C10.7092 4.81336 10.7348 4.8924 10.7244 4.97095C10.7125 5.06124 10.6145 5.15668 10.4186 5.34754L8.55925 7.15846C8.50134 7.2149 8.47233 7.24317 8.45362 7.27675C8.43707 7.30644 8.42645 7.33913 8.42235 7.37292C8.41773 7.41107 8.42456 7.45096 8.43823 7.53068L8.87698 10.0886C8.92322 10.3584 8.94634 10.4933 8.90288 10.5733C8.86505 10.6429 8.79783 10.6918 8.7199 10.7062C8.6303 10.7228 8.50917 10.6591 8.26691 10.5317L5.969 9.32325C5.89738 9.28562 5.86159 9.26681 5.82386 9.2594C5.79049 9.25283 5.75612 9.25283 5.72275 9.2594C5.68502 9.26681 5.64923 9.28562 5.57765 9.32325L3.27971 10.5317C3.03745 10.6591 2.91631 10.7228 2.82674 10.7062C2.74882 10.6918 2.68157 10.6429 2.64374 10.5733C2.60026 10.4933 2.6234 10.3584 2.66967 10.0886L3.10838 7.53068C3.12205 7.45096 3.12889 7.41107 3.12426 7.37292C3.12016 7.33913 3.10954 7.30644 3.09299 7.27675C3.07429 7.24317 3.04531 7.2149 2.98735 7.15846L1.12807 5.34754C0.93211 5.15668 0.834129 5.06124 0.82221 4.97095C0.811837 4.8924 0.83746 4.81336 0.891956 4.75584C0.954592 4.68972 1.08993 4.66994 1.3606 4.63038L3.93102 4.25467C4.01096 4.24299 4.05093 4.23715 4.08574 4.22096C4.11655 4.20663 4.1443 4.18646 4.16744 4.16156C4.19357 4.13343 4.21145 4.09721 4.2472 4.02477L5.39635 1.69677Z" fill="#F3902E" stroke="#F3902E" stroke-width="1.05102" stroke-linecap="round" stroke-linejoin="round"/>
</svg>
