<svg width="80" height="80" viewBox="0 0 80 80" fill="none" xmlns="http://www.w3.org/2000/svg">
<path d="M11.25 24.375H68.75H70.0001V25.625V61.875V63.1251H68.75H11.25H10V61.875V25.625V24.375H11.25ZM67.5 26.8751H12.5V60.625H67.5V26.8751Z" fill="#005A8C"/>
<path d="M28.7501 24.3749H51.25V22.0311C51.25 21.302 50.9508 20.6381 50.4688 20.1561C49.9868 19.6741 49.3229 19.3749 48.5938 19.3749H31.4063C30.6771 19.3749 30.0133 19.6741 29.5313 20.1561C29.0493 20.6381 28.7501 21.302 28.7501 22.0311L28.7501 24.3749ZM52.5 26.8749H27.5H26.25V25.6249V22.0311C26.25 20.6119 26.8298 19.3225 27.7637 18.3885C28.6976 17.4546 29.987 16.8749 31.4063 16.8749H48.5938C50.0131 16.8749 51.3024 17.4546 52.2364 18.3885C53.1703 19.3225 53.75 20.6119 53.75 22.0311V25.6249V26.8749H52.5Z" fill="#005A8C"/>
<path d="M66.25 37.4305C63.9496 38.3337 61.1698 39.1004 58.0544 39.7048C53.4831 40.5916 48.1504 41.1351 42.5259 41.2507L42.4771 38.7604C47.9391 38.6481 53.1279 38.1184 57.5856 37.2536C60.9963 36.592 63.9553 35.7378 66.25 34.7294L66.25 37.4305ZM37.4694 41.2378C31.7515 41.0911 26.3529 40.5003 21.7675 39.5576C18.6984 38.9266 15.9783 38.1337 13.7501 37.2057V34.4833C15.9557 35.5262 18.8679 36.4177 22.2656 37.1162C26.7159 38.0311 31.9632 38.6048 37.528 38.7475L37.4694 41.2378Z" fill="#EF4436"/>
<path d="M37.4986 36.2515H42.5014H43.7515V37.5015V45.0058V46.2558H42.5014H37.4986H36.2485V45.0058V37.5015V36.2515H37.4986ZM41.2514 38.7515H38.7486V43.7557H41.2514V38.7515Z" fill="#EF4436"/>
</svg>
